<svg id="Capa_1" enable-background="new 0 0 512 512" height="512" viewBox="0 0 512 512" width="512" xmlns="http://www.w3.org/2000/svg"><g><g><g><path d="m241.743 41.774-160.114 74.663c-14.635 6.824-23.731 21.779-23.061 37.913l4.291 103.244 299.082-139.464-76.331-69.651c-11.929-10.885-29.232-13.529-43.867-6.705z" fill="#bcfbff"/><g><path d="m285.61 48.479c-11.928-10.885-29.231-13.529-43.867-6.705l-84.589 39.444 50.714 108.757 154.072-71.845z" fill="#8bb9ff"/></g><g><path d="m295.72 37.398c-16.453-15.014-40.129-18.632-60.317-9.219l-160.113 74.663c-20.187 9.414-32.635 29.876-31.709 52.131l4.915 118.232 29.974-1.246-4.915-118.231c-.42-10.116 5.238-19.418 14.414-23.697l61.931-28.879 50.714 108.757 27.189-12.679-50.715-108.756 70.994-33.105c9.176-4.279 19.938-2.634 27.418 4.19l87.41 79.762 20.222-22.16z" fill="#ff8659"/><g><path d="m295.72 37.398c-16.453-15.014-40.129-18.632-60.317-9.219l-84.588 39.444 63.393 135.946 13.595-6.339-50.715-108.756 70.994-33.105c9.176-4.279 19.938-2.634 27.418 4.19l87.41 79.762 20.222-22.16z" fill="#ff4a4a"/></g><path d="m496.336 193.384-425.059 198.207c-7.508 3.501-16.433.253-19.934-7.255l-29.583-63.442c-12.817-27.486-.883-60.274 26.603-73.091l361.617-168.624c22.489-10.487 49.315-.723 59.802 21.766l33.809 72.505c3.501 7.508.253 16.433-7.255 19.934z" fill="#ff8659"/><g><path d="m409.98 79.179-208.451 97.202 59.166 126.883 235.64-109.88c7.508-3.501 10.756-12.426 7.255-19.934l-33.809-72.505c-10.486-22.489-37.312-32.253-59.801-21.766z" fill="#ff4a4a"/></g><path d="m426.836 280.961c-32.483 15.147-71.233 1.043-86.38-31.44s-1.043-71.233 31.44-86.38 71.233-1.043 86.38 31.44c15.147 32.482 1.043 71.233-31.44 86.38z" fill="#9d7552"/><circle cx="399.366" cy="222.051" fill="#f9f1f1" r="35"/></g></g><g><g><path d="m426.836 280.961c-32.483 15.147-71.233 1.043-86.38-31.44s-1.043-71.233 31.44-86.38 71.233-1.043 86.38 31.44c15.147 32.482 1.043 71.233-31.44 86.38z" fill="#38336b"/><circle cx="399.366" cy="222.051" fill="#e2dff4" r="35"/></g></g></g><g><path d="m497 489h-482c-8.284 0-15-6.716-15-15v-125c0-8.306 6.8-14.984 15.106-15 10.478-.02 14.969-2.999 21.755-7.5 8.396-5.569 18.845-12.5 38.443-12.5s30.047 6.931 38.443 12.5c6.809 4.516 11.307 7.5 21.86 7.5 10.541 0 15.034-2.983 21.836-7.498 8.392-5.57 18.836-12.502 38.426-12.502 19.581 0 30.019 6.934 38.405 12.506 6.793 4.513 11.281 7.494 21.805 7.494 10.534 0 15.025-2.982 21.824-7.496 8.39-5.571 18.832-12.504 38.418-12.504 19.584 0 30.024 6.934 38.413 12.505 6.796 4.513 11.285 7.495 21.814 7.495s15.019-2.982 21.814-7.495c8.388-5.571 18.828-12.505 38.412-12.505s30.024 6.934 38.412 12.505c6.772 4.497 11.254 7.474 21.704 7.495 8.308.016 15.11 6.692 15.11 15v125c0 8.284-6.716 15-15 15z" fill="#bcfbff"/><path d="m496.89 334c-10.45-.021-14.932-2.998-21.704-7.495-8.388-5.571-18.828-12.505-38.412-12.505s-30.023 6.934-38.412 12.505c-6.795 4.513-11.285 7.495-21.814 7.495s-15.019-2.982-21.814-7.495c-8.389-5.571-18.828-12.505-38.413-12.505-19.587 0-30.028 6.933-38.418 12.504-6.798 4.514-11.29 7.496-21.824 7.496-.027 0-.052-.001-.079-.001v155.001h241c8.284 0 15-6.716 15-15v-125c0-8.308-6.801-14.984-15.11-15z" fill="#acceff"/><path d="m497 489h-482c-8.284 0-15-6.716-15-15v-70h15c10.553 0 15.052-2.984 21.86-7.5 8.396-5.569 18.845-12.5 38.443-12.5s30.047 6.931 38.443 12.5c6.809 4.516 11.307 7.5 21.86 7.5 10.541 0 15.034-2.983 21.836-7.498 8.392-5.57 18.836-12.502 38.426-12.502 19.581 0 30.019 6.934 38.405 12.506 6.793 4.513 11.281 7.494 21.805 7.494 10.534 0 15.025-2.982 21.824-7.496 8.39-5.571 18.832-12.504 38.418-12.504 19.584 0 30.024 6.934 38.413 12.505 6.796 4.513 11.285 7.495 21.814 7.495s15.019-2.982 21.814-7.495c8.389-5.571 18.829-12.505 38.413-12.505s30.024 6.934 38.412 12.505c6.796 4.513 11.285 7.495 21.814 7.495h15v70c0 8.284-6.716 15-15 15z" fill="#acceff"/><g><path d="m475.186 396.505c-8.388-5.571-18.828-12.505-38.412-12.505s-30.023 6.934-38.412 12.505c-6.795 4.513-11.285 7.495-21.814 7.495s-15.019-2.982-21.814-7.495c-8.389-5.571-18.828-12.505-38.413-12.505-19.587 0-30.028 6.933-38.418 12.504-6.798 4.514-11.29 7.496-21.824 7.496-.027 0-.052-.001-.079-.001v85.001h241c8.284 0 15-6.716 15-15v-70h-15c-10.529 0-15.018-2.982-21.814-7.495z" fill="#8bb9ff"/></g></g></g></svg>