<svg id="Capa_1" enable-background="new 0 0 512 512" height="512" viewBox="0 0 512 512" width="512" xmlns="http://www.w3.org/2000/svg"><g><g><path d="m461.501 168.768c.052 38.09-2.159 76.169-6.644 114.259-2.668 22.694-21.209 40.27-44.028 41.702-120.052 7.547-240.104 7.547-360.155 0-22.819-1.433-41.36-19.008-44.028-41.702-4.485-38.09-6.696-76.169-6.644-114.259.052-30.574 1.557-61.147 4.537-91.731.633-6.53 1.339-13.07 2.107-19.611 2.668-22.694 21.209-40.27 44.028-41.702 120.052-7.547 240.103-7.547 360.155 0 22.819 1.433 41.36 19.009 44.028 41.702.768 6.54 1.474 13.081 2.107 19.611 2.979 30.584 4.485 61.157 4.537 91.731z" fill="#ffd064"/><path d="m51.576 324.781c-.301-.011-.602-.031-.903-.052-22.819-1.433-41.36-19.009-44.028-41.703-4.485-38.09-6.696-76.169-6.644-114.259.052-30.574 1.557-61.147 4.537-91.731.633-6.53 1.339-13.07 2.107-19.611 2.668-22.694 21.209-40.27 44.028-41.703.311-.021.612-.042.924-.052-12.562 7.736-21.427 20.941-23.244 36.41-.81 6.842-1.547 13.693-2.211 20.535-3.114 32.037-4.692 64.064-4.744 96.081-.062 39.896 2.253 79.782 6.956 119.678 1.816 15.468 10.671 28.663 23.222 36.407z" fill="#ffc250"/><g fill="#407093"><g><path d="m45.09 137.376c-4.267 0-7.726-3.459-7.726-7.726v-34.707c0-4.267 3.459-7.726 7.726-7.726s7.726 3.459 7.726 7.726v34.707c0 4.267-3.459 7.726-7.726 7.726z"/><path d="m72.384 137.376c-4.267 0-7.726-3.459-7.726-7.726v-34.707c0-4.267 3.459-7.726 7.726-7.726s7.726 3.459 7.726 7.726v34.707c0 4.267-3.459 7.726-7.726 7.726z"/><path d="m99.677 137.376c-4.267 0-7.726-3.459-7.726-7.726v-34.707c0-4.267 3.459-7.726 7.726-7.726s7.726 3.459 7.726 7.726v34.707c0 4.267-3.459 7.726-7.726 7.726z"/></g><g><path d="m143.013 137.376c-4.267 0-7.726-3.459-7.726-7.726v-34.707c0-4.267 3.459-7.726 7.726-7.726s7.726 3.459 7.726 7.726v34.707c0 4.267-3.459 7.726-7.726 7.726z"/><path d="m170.306 137.376c-4.267 0-7.726-3.459-7.726-7.726v-34.707c0-4.267 3.459-7.726 7.726-7.726s7.726 3.459 7.726 7.726v34.707c0 4.267-3.459 7.726-7.726 7.726z"/><path d="m197.599 137.376c-4.267 0-7.726-3.459-7.726-7.726v-34.707c0-4.267 3.459-7.726 7.726-7.726s7.726 3.459 7.726 7.726v34.707c0 4.267-3.459 7.726-7.726 7.726z"/></g><g><path d="m240.935 137.376c-4.267 0-7.726-3.459-7.726-7.726v-34.707c0-4.267 3.459-7.726 7.726-7.726s7.726 3.459 7.726 7.726v34.707c0 4.267-3.459 7.726-7.726 7.726z"/><path d="m268.228 137.376c-4.268 0-7.726-3.459-7.726-7.726v-34.707c0-4.267 3.459-7.726 7.726-7.726s7.726 3.459 7.726 7.726v34.707c.001 4.267-3.458 7.726-7.726 7.726z"/><path d="m295.521 137.376c-4.268 0-7.726-3.459-7.726-7.726v-34.707c0-4.267 3.459-7.726 7.726-7.726s7.726 3.459 7.726 7.726v34.707c0 4.267-3.458 7.726-7.726 7.726z"/></g></g><path d="m333.446 129.65h65.944c4.925 0 8.917-3.992 8.917-8.917v-16.873c0-4.925-3.992-8.917-8.917-8.917h-65.944c-4.925 0-8.917 3.992-8.917 8.917v16.872c0 4.925 3.992 8.918 8.917 8.918z" fill="#dbdbdb"/></g><g><path d="m511.999 340.315c.052 38.09-2.159 76.169-6.644 114.259-2.668 22.694-21.209 40.27-44.028 41.702-120.052 7.547-240.104 7.547-360.155 0-22.819-1.433-41.36-19.008-44.028-41.702-4.485-38.09-6.696-76.169-6.644-114.259.052-30.574 1.557-61.147 4.537-91.731.633-6.53 1.339-13.07 2.107-19.611 2.668-22.694 21.209-40.27 44.028-41.702 120.052-7.547 240.103-7.547 360.155 0 22.819 1.433 41.36 19.009 44.028 41.702.768 6.54 1.474 13.081 2.107 19.611 2.98 30.584 4.485 61.157 4.537 91.731z" fill="#80b4fb"/><path d="m102.075 496.328c-.301-.011-.602-.031-.903-.052-22.819-1.433-41.36-19.009-44.028-41.703-4.485-38.09-6.696-76.169-6.644-114.259.052-30.573 1.557-61.147 4.537-91.731.633-6.53 1.339-13.07 2.107-19.611 2.668-22.694 21.209-40.27 44.028-41.703.311-.021.612-.042.924-.052-12.562 7.734-21.427 20.939-23.244 36.408-.81 6.842-1.547 13.693-2.211 20.535-3.114 32.037-4.692 64.064-4.744 96.081-.062 39.896 2.253 79.782 6.956 119.678 1.815 15.47 10.67 28.665 23.222 36.409z" fill="#61a2f9"/><path d="m511.999 340.315c-146.701 1.879-293.402 1.973-440.103.249-7.132-.072-14.264-.156-21.396-.249.052-30.574 1.557-61.147 4.537-91.731 7.07-.094 14.14-.177 21.209-.249 143.742-1.64 287.474-1.547 431.217.249 2.979 30.584 4.484 61.157 4.536 91.731z" fill="#407093"/><path d="m76.246 248.335c-2.855 30.646-4.298 61.282-4.35 91.907v.322c-7.132-.072-14.264-.156-21.396-.249.052-30.574 1.557-61.147 4.537-91.731 7.069-.093 14.139-.177 21.209-.249z" fill="#365e7d"/><g fill="#ededed"><g><path d="m95.589 416.621c-4.267 0-7.726-3.459-7.726-7.726v-34.707c0-4.267 3.459-7.726 7.726-7.726s7.726 3.459 7.726 7.726v34.707c0 4.266-3.459 7.726-7.726 7.726z"/><path d="m122.882 416.621c-4.267 0-7.726-3.459-7.726-7.726v-34.707c0-4.267 3.459-7.726 7.726-7.726s7.726 3.459 7.726 7.726v34.707c.001 4.266-3.459 7.726-7.726 7.726z"/><path d="m150.176 416.621c-4.267 0-7.726-3.459-7.726-7.726v-34.707c0-4.267 3.459-7.726 7.726-7.726s7.726 3.459 7.726 7.726v34.707c0 4.266-3.459 7.726-7.726 7.726z"/></g><g><path d="m193.511 416.621c-4.267 0-7.726-3.459-7.726-7.726v-34.707c0-4.267 3.459-7.726 7.726-7.726s7.726 3.459 7.726 7.726v34.707c0 4.266-3.459 7.726-7.726 7.726z"/><path d="m220.804 416.621c-4.267 0-7.726-3.459-7.726-7.726v-34.707c0-4.267 3.459-7.726 7.726-7.726s7.726 3.459 7.726 7.726v34.707c.001 4.266-3.459 7.726-7.726 7.726z"/><path d="m248.098 416.621c-4.267 0-7.726-3.459-7.726-7.726v-34.707c0-4.267 3.459-7.726 7.726-7.726s7.726 3.459 7.726 7.726v34.707c0 4.266-3.459 7.726-7.726 7.726z"/></g><g><path d="m291.433 416.621c-4.268 0-7.726-3.459-7.726-7.726v-34.707c0-4.267 3.459-7.726 7.726-7.726s7.726 3.459 7.726 7.726v34.707c0 4.266-3.459 7.726-7.726 7.726z"/><path d="m318.726 416.621c-4.268 0-7.726-3.459-7.726-7.726v-34.707c0-4.267 3.459-7.726 7.726-7.726s7.726 3.459 7.726 7.726v34.707c.001 4.266-3.458 7.726-7.726 7.726z"/><path d="m346.02 416.621c-4.268 0-7.726-3.459-7.726-7.726v-34.707c0-4.267 3.459-7.726 7.726-7.726s7.726 3.459 7.726 7.726v34.707c0 4.266-3.458 7.726-7.726 7.726z"/></g></g><path d="m466.423 462.073h-92.498c-4.268 0-7.726-3.459-7.726-7.726s3.459-7.726 7.726-7.726h92.498c4.268 0 7.726 3.459 7.726 7.726s-3.459 7.726-7.726 7.726z" fill="#ffd064"/><path d="m335.872 462.073h-52.823c-4.268 0-7.726-3.459-7.726-7.726s3.459-7.726 7.726-7.726h52.823c4.268 0 7.726 3.459 7.726 7.726.001 4.267-3.458 7.726-7.726 7.726z" fill="#ffd064"/></g></g></svg>