<svg id="Capa_1" enable-background="new 0 0 512 512" height="512" viewBox="0 0 512 512" width="512" xmlns="http://www.w3.org/2000/svg"><g><g><path d="m0 256c0 141.159 114.841 256 256 256l40.039-252.115-40.039-259.885c-141.159 0-256 114.841-256 256z" fill="#fde280"/><path d="m256 0v512c141.159 0 256-114.841 256-256s-114.841-256-256-256z" fill="#fdc27d"/></g><g><path d="m66.871 256c0 104.286 84.843 189.129 189.129 189.129l29.58-186.259-29.58-191.999c-104.286.001-189.129 84.843-189.129 189.129z" fill="#fff5f6"/><path d="m256 66.871v378.257c104.286 0 189.128-84.843 189.128-189.129.001-104.285-84.842-189.128-189.128-189.128z" fill="#e3eaf2"/></g><g><g><path d="m94.37 315.54 38.82-65.545-38.82-69.89h-38.488c-30.813 0-55.882 25.069-55.882 55.882v32.729c0 64.956 25.295 126.024 71.225 171.954.016.016.033.032.049.048l53.16 3.088 3.296-59.544c-18.07-18.069-30.246-42.031-33.36-68.722z" fill="#21c9b4"/><path d="m196.23 417.587c-26.601-3.151-50.481-15.308-68.5-33.325l-56.456 56.456c45.925 45.899 106.972 71.177 171.905 71.177h24.06c30.813 0 55.882-25.068 55.882-55.882v-38.467l-63.445-25.906z" fill="#17969b"/></g><path d="m94.37 180.105h53.669v135.435h-53.669z" fill="#17969b"/><path d="m196.23 363.734h126.891v53.812h-126.891z" fill="#0d6369"/></g><g><path d="m241.284 146.473v106.489l-46.745 38.667 19.121 23.117 42.34-35.023 10.27-71.166-10.27-62.084z" fill="#fd445f"/></g><path d="m271.284 146.473h-15.284v133.25l15.284-12.643z" fill="#e91f5c"/></g></svg>