<svg id="Capa_1" enable-background="new 0 0 512 512" height="512" viewBox="0 0 512 512" width="512" xmlns="http://www.w3.org/2000/svg"><g><g><path d="m284.189 512h-168.378c-63.719 0-115.67-51.106-115.81-113.924l-.001-1.076c0-91.446 65.359-170.367 129.295-235.507 2.821-2.874 6.678-4.493 10.705-4.493h120c4.026 0 7.885 1.619 10.705 4.493 63.936 65.14 129.295 144.061 129.295 235.507l-.002 1.085c-.139 62.809-52.09 113.915-115.809 113.915z" fill="#6b61b1"/><path d="m260 157h-60v355h84.189c63.719 0 115.67-51.106 115.809-113.915l.002-1.085c0-91.446-65.359-170.367-129.295-235.507-2.82-2.874-6.679-4.493-10.705-4.493z" fill="#453d81"/><path d="m260 127h-120c-4.721 0-9.167-2.223-12-6-21.897-29.196-33-61.496-33-96v-10c0-8.284 6.716-15 15-15h10c27.78 0 64.015 17.992 80 26.746 15.985-8.754 52.22-26.746 80-26.746h10c8.284 0 15 6.716 15 15v10c0 34.505-11.103 66.804-33 96-2.833 3.777-7.278 6-12 6z" fill="#6b61b1"/><path d="m260 127c4.722 0 9.167-2.223 12-6 21.897-29.196 33-61.495 33-96v-10c0-8.284-6.716-15-15-15h-10c-27.78 0-64.015 17.992-80 26.746v100.254z" fill="#453d81"/><path d="m125 116.872h150v49.018h-150z" fill="#ef5ca2"/><path d="m200 116.872h75v49.018h-75z" fill="#ea1c81"/><path d="m218.651 323.409c-2.317-.819-4.677-1.67-7.039-2.549v-42.301c4.34 1.496 6.586 3.673 6.883 3.976 4.545 5.135 12.391 5.651 17.571 1.138 5.205-4.536 5.748-12.432 1.212-17.636-4.271-4.901-13.126-11.05-25.666-13.146v-6.891c0-6.904-5.596-12.5-12.5-12.5s-12.5 5.596-12.5 12.5v8.276c-.876.228-1.759.474-2.652.743-15.112 4.552-26.398 17.456-29.455 33.676-2.803 14.873 2.02 29.26 12.584 37.546 5.057 3.967 11.23 7.602 19.523 11.389v54.913c-6.049-.804-10.573-2.782-17.661-7.418-5.778-3.78-13.524-2.16-17.303 3.618-3.779 5.777-2.16 13.524 3.618 17.303 12.257 8.018 20.874 10.781 31.346 11.646v8.308c0 6.904 5.596 12.5 12.5 12.5s12.5-5.596 12.5-12.5v-9.476c8.214-2.01 15.684-5.989 22.01-11.801 8.459-7.772 14.168-18.302 16.076-29.65 3.923-23.332-8.264-43.612-31.047-51.664zm-36.133-16.839c-3.144-2.466-4.497-7.665-3.445-13.245.794-4.212 3.172-9.1 7.539-12.153v28.233c-1.481-.926-2.864-1.87-4.094-2.835zm42.526 64.358c-1.217 7.239-5.768 14.875-13.432 19.011v-42.469c14.657 5.875 14.302 18.287 13.432 23.458z" fill="#fffa8c"/><path d="m218.651 323.409c-2.317-.819-4.677-1.67-7.039-2.549v-42.301c4.34 1.496 6.586 3.673 6.883 3.976 4.545 5.135 12.391 5.651 17.571 1.138 5.205-4.536 5.748-12.432 1.212-17.636-4.271-4.901-13.126-11.05-25.666-13.146v-6.891c0-6.604-5.125-11.998-11.612-12.455v204.91c6.488-.457 11.612-5.851 11.612-12.455v-9.476c8.214-2.01 15.684-5.989 22.01-11.801 8.459-7.772 14.168-18.302 16.076-29.65 3.923-23.332-8.264-43.612-31.047-51.664zm6.393 47.519c-1.217 7.239-5.768 14.875-13.432 19.011v-42.469c14.657 5.875 14.302 18.287 13.432 23.458z" fill="#ffc178"/></g><g><path d="m397 512c-1.452 0-2.904-.211-4.31-.633-32.235-9.67-59.893-29.054-79.982-56.054-20.089-27.001-30.708-59.062-30.708-92.716v-85.597c0-8.284 6.716-15 15-15 18.955 0 35.996-10.532 44.472-27.485l2.111-4.222c2.541-5.083 7.735-8.293 13.417-8.293h80c5.682 0 10.876 3.21 13.417 8.292l2.111 4.223c8.476 16.953 25.517 27.485 44.472 27.485 8.284 0 15 6.716 15 15v85.597c0 33.654-10.619 65.715-30.708 92.716-20.089 27-47.747 46.384-79.982 56.054-1.406.422-2.858.633-4.31.633z" fill="#9ddff6"/><path d="m497 262c-18.955 0-35.996-10.532-44.472-27.484l-2.111-4.223c-2.541-5.083-7.735-8.293-13.417-8.293h-40v290c1.452 0 2.904-.211 4.31-.633 32.235-9.67 59.893-29.054 79.982-56.054 20.089-27.001 30.708-59.062 30.708-92.716v-85.597c0-8.284-6.716-15-15-15z" fill="#6ba7ff"/><path d="m312 290.603v71.995c0 54.256 33.971 101.385 85 118.66 51.029-17.275 85-64.404 85-118.66v-71.995c-22.701-4.285-42.437-18.2-54.125-38.603h-61.75c-11.688 20.403-31.424 34.318-54.125 38.603z" fill="#f5f5ff"/><path d="m427.875 252h-30.875v229.257c51.029-17.275 85-64.404 85-118.66v-71.995c-22.701-4.284-42.437-18.2-54.125-38.602z" fill="#e2e7fa"/><path d="m382.858 410.284c-3.839 0-7.678-1.464-10.606-4.394l-28.284-28.284c-5.858-5.858-5.858-15.355 0-21.213 5.857-5.858 15.355-5.858 21.213 0l17.678 17.677 45.962-45.961c5.857-5.858 15.355-5.858 21.213 0s5.858 15.355 0 21.213l-56.568 56.568c-2.93 2.93-6.769 4.394-10.608 4.394z" fill="#6b61b1"/><path d="m428.82 328.109-31.82 31.82v42.426l53.033-53.033c5.858-5.858 5.858-15.355 0-21.213s-15.356-5.858-21.213 0z" fill="#453d81"/></g></g></svg>