<svg id="Capa_1" enable-background="new 0 0 512 512" height="512" viewBox="0 0 512 512" width="512" xmlns="http://www.w3.org/2000/svg"><g><path d="m76 60h360v452h-360z" fill="#80eaff"/><path d="m256 60h180v452h-180z" fill="#4dc3ff"/><path d="m406 90v392h-300v-392h75l30-15h90l30 15z" fill="#e6f7ff"/><path d="m406 90v392h-150v-407h45l30 15z" fill="#cef"/><path d="m382.301 196-51.301 51.301-21.301-21.301 15-15h-53.699v210h-60v-30h30v-210h83.699l-15-15 21.301-21.301z" fill="#474f54"/><path d="m382.301 196-51.301 51.301-21.301-21.301 15-15h-53.699v210h-15v-240h68.699l-15-15 21.301-21.301z" fill="#32393f"/><path d="m221.605 266.605-21.21-21.21-19.395 19.394-19.395-19.394-21.21 21.21 19.394 19.395-19.394 19.395 21.21 21.21 19.395-19.394 19.395 19.394 21.21-21.21-19.394-19.395z" fill="#f66"/><path d="m371.605 326.605-21.21-21.21-19.395 19.394-19.395-19.394-21.21 21.21 19.394 19.395-19.394 19.395 21.21 21.21 19.395-19.394 19.395 19.394 21.21-21.21-19.394-19.395z" fill="#e62e4d"/><path d="m181 451c-24.814 0-45-20.186-45-45s20.186-45 45-45 45 20.186 45 45-20.186 45-45 45z" fill="#80eaff"/><path d="m331 30v60h-150v-60h45c0-16.5 13.5-30 30-30s30 13.5 30 30z" fill="#f66"/><path d="m331 90h-75v-90c16.5 0 30 13.5 30 30h45z" fill="#e62e4d"/></g></svg>